<!--?xml version="1.0" encoding="utf-8"?-->
<!-- Generator: Adobe Illustrator 18.1.1, SVG Export Plug-In . SVG Version: 6.00 Build 0)  -->

<svg version="1.1" id="_x32_" xmlns="http://www.w3.org/2000/svg" xmlns:xlink="http://www.w3.org/1999/xlink" x="0px" y="0px" viewBox="0 0 512 512" style="width: 256px; height: 256px; opacity: 1;" xml:space="preserve">
<style type="text/css">
	.st0{fill:#4B4B4B;}
</style>
<g>
	<rect x="239.75" class="st0" width="32.517" height="83.95" style="fill: rgb(75, 75, 75);"></rect>
	<rect x="239.75" y="428.05" class="st0" width="32.517" height="83.95" style="fill: rgb(75, 75, 75);"></rect>
	<polygon class="st0" points="113.934,42.425 155.9,115.134 184.067,98.875 142.084,26.167 	" style="fill: rgb(75, 75, 75);"></polygon>
	<polygon class="st0" points="327.95,413.125 369.934,485.833 398.084,469.575 356.116,396.859 	" style="fill: rgb(75, 75, 75);"></polygon>
	<polygon class="st0" points="115.134,155.892 42.434,113.916 26.184,142.084 98.884,184.05 	" style="fill: rgb(75, 75, 75);"></polygon>
	<polygon class="st0" points="396.867,356.1 469.583,398.084 485.834,369.916 413.134,327.934 	" style="fill: rgb(75, 75, 75);"></polygon>
	<polygon class="st0" points="83.95,239.742 0,239.734 0,272.258 83.95,272.258 	" style="fill: rgb(75, 75, 75);"></polygon>
	<rect x="428.05" y="239.734" class="st0" width="83.95" height="32.525" style="fill: rgb(75, 75, 75);"></rect>
	<polygon class="st0" points="98.884,327.95 26.167,369.916 42.434,398.084 115.134,356.1 	" style="fill: rgb(75, 75, 75);"></polygon>
	<polygon class="st0" points="413.134,184.05 485.834,142.084 469.583,113.916 396.867,155.892 	" style="fill: rgb(75, 75, 75);"></polygon>
	<polygon class="st0" points="113.917,469.575 142.084,485.833 184.05,413.125 155.9,396.866 	" style="fill: rgb(75, 75, 75);"></polygon>
	<polygon class="st0" points="398.084,42.425 369.917,26.167 327.934,98.875 356.1,115.134 	" style="fill: rgb(75, 75, 75);"></polygon>
</g>
</svg>
